<mxfile host="app.diagrams.net" agent="Mozilla/5.0 (Windows NT 10.0; Win64; x64) AppleWebKit/537.36 (KHTML, like Gecko) Chrome/131.0.0.0 Safari/537.36" version="25.0.3">
  <diagram id="6a731a19-8d31-9384-78a2-239565b7b9f0" name="Page-1">
    <mxGraphModel dx="1728" dy="943" grid="1" gridSize="10" guides="1" tooltips="1" connect="1" arrows="1" fold="1" page="1" pageScale="1" pageWidth="1169" pageHeight="827" background="none" math="0" shadow="0">
      <root>
        <mxCell id="0" />
        <mxCell id="1" parent="0" />
        <mxCell id="FllbzKFlJK6ehd7ZULbo-95" value="" style="edgeStyle=orthogonalEdgeStyle;rounded=0;orthogonalLoop=1;jettySize=auto;html=1;" parent="1" source="2" target="FllbzKFlJK6ehd7ZULbo-77" edge="1">
          <mxGeometry relative="1" as="geometry" />
        </mxCell>
        <mxCell id="2" value="start" style="shape=mxgraph.flowchart.terminator;strokeWidth=2;gradientColor=none;gradientDirection=north;fontStyle=0;html=1;" parent="1" vertex="1">
          <mxGeometry x="31.5" y="60" width="120" height="30" as="geometry" />
        </mxCell>
        <mxCell id="FllbzKFlJK6ehd7ZULbo-97" value="" style="edgeStyle=orthogonalEdgeStyle;rounded=0;orthogonalLoop=1;jettySize=auto;html=1;" parent="1" source="FllbzKFlJK6ehd7ZULbo-56" target="FllbzKFlJK6ehd7ZULbo-81" edge="1">
          <mxGeometry relative="1" as="geometry" />
        </mxCell>
        <mxCell id="FllbzKFlJK6ehd7ZULbo-119" value="Yes" style="edgeLabel;html=1;align=center;verticalAlign=middle;resizable=0;points=[];" parent="FllbzKFlJK6ehd7ZULbo-97" vertex="1" connectable="0">
          <mxGeometry x="-0.0353" y="1" relative="1" as="geometry">
            <mxPoint y="1" as="offset" />
          </mxGeometry>
        </mxCell>
        <mxCell id="FllbzKFlJK6ehd7ZULbo-98" value="" style="edgeStyle=orthogonalEdgeStyle;rounded=0;orthogonalLoop=1;jettySize=auto;html=1;" parent="1" source="FllbzKFlJK6ehd7ZULbo-56" edge="1">
          <mxGeometry relative="1" as="geometry">
            <mxPoint x="241.5" y="263" as="targetPoint" />
          </mxGeometry>
        </mxCell>
        <mxCell id="FllbzKFlJK6ehd7ZULbo-118" value="No" style="edgeLabel;html=1;align=center;verticalAlign=middle;resizable=0;points=[];" parent="FllbzKFlJK6ehd7ZULbo-98" vertex="1" connectable="0">
          <mxGeometry x="-0.3564" y="-2" relative="1" as="geometry">
            <mxPoint as="offset" />
          </mxGeometry>
        </mxCell>
        <mxCell id="FllbzKFlJK6ehd7ZULbo-56" value="Existing&lt;div&gt;Wave?&lt;/div&gt;" style="shape=mxgraph.flowchart.decision;strokeWidth=2;gradientColor=none;gradientDirection=north;fontStyle=0;html=1;" parent="1" vertex="1">
          <mxGeometry x="42.5" y="234.5" width="98" height="57" as="geometry" />
        </mxCell>
        <mxCell id="FllbzKFlJK6ehd7ZULbo-96" value="" style="edgeStyle=orthogonalEdgeStyle;rounded=0;orthogonalLoop=1;jettySize=auto;html=1;" parent="1" source="FllbzKFlJK6ehd7ZULbo-77" target="FllbzKFlJK6ehd7ZULbo-56" edge="1">
          <mxGeometry relative="1" as="geometry" />
        </mxCell>
        <mxCell id="FllbzKFlJK6ehd7ZULbo-77" value="&lt;span style=&quot;text-wrap-mode: nowrap;&quot;&gt;Open Picking&amp;nbsp;&lt;/span&gt;&lt;div&gt;&lt;span style=&quot;text-wrap-mode: nowrap;&quot;&gt;Interface (211)&lt;/span&gt;&lt;/div&gt;" style="rounded=1;whiteSpace=wrap;html=1;" parent="1" vertex="1">
          <mxGeometry x="31.5" y="130" width="120" height="60" as="geometry" />
        </mxCell>
        <mxCell id="FllbzKFlJK6ehd7ZULbo-106" style="edgeStyle=orthogonalEdgeStyle;rounded=0;orthogonalLoop=1;jettySize=auto;html=1;exitX=0.5;exitY=1;exitDx=0;exitDy=0;entryX=0;entryY=0.5;entryDx=0;entryDy=0;" parent="1" source="FllbzKFlJK6ehd7ZULbo-81" edge="1">
          <mxGeometry relative="1" as="geometry">
            <Array as="points">
              <mxPoint x="92" y="540" />
              <mxPoint x="422" y="540" />
              <mxPoint x="422" y="160" />
            </Array>
            <mxPoint x="460.5" y="160" as="targetPoint" />
          </mxGeometry>
        </mxCell>
        <mxCell id="FllbzKFlJK6ehd7ZULbo-81" value="&lt;span style=&quot;text-wrap-mode: nowrap;&quot;&gt;Select Wave&lt;/span&gt;" style="rounded=1;whiteSpace=wrap;html=1;" parent="1" vertex="1">
          <mxGeometry x="31.5" y="334" width="120" height="60" as="geometry" />
        </mxCell>
        <mxCell id="FllbzKFlJK6ehd7ZULbo-121" value="end" style="shape=mxgraph.flowchart.terminator;strokeWidth=2;gradientColor=none;gradientDirection=north;fontStyle=0;html=1;" parent="1" vertex="1">
          <mxGeometry x="945" y="730" width="120" height="30" as="geometry" />
        </mxCell>
        <mxCell id="3FSWND0N6_TuDMLNCHhA-4" value="" style="edgeStyle=orthogonalEdgeStyle;rounded=0;orthogonalLoop=1;jettySize=auto;html=1;" edge="1" parent="1" source="3FSWND0N6_TuDMLNCHhA-2" target="3FSWND0N6_TuDMLNCHhA-3">
          <mxGeometry relative="1" as="geometry" />
        </mxCell>
        <mxCell id="3FSWND0N6_TuDMLNCHhA-2" value="&lt;span style=&quot;text-wrap-mode: nowrap;&quot;&gt;Select New Wave&lt;/span&gt;" style="rounded=1;whiteSpace=wrap;html=1;" vertex="1" parent="1">
          <mxGeometry x="242" y="233" width="120" height="60" as="geometry" />
        </mxCell>
        <mxCell id="3FSWND0N6_TuDMLNCHhA-6" value="" style="edgeStyle=orthogonalEdgeStyle;rounded=0;orthogonalLoop=1;jettySize=auto;html=1;" edge="1" parent="1" source="3FSWND0N6_TuDMLNCHhA-3" target="3FSWND0N6_TuDMLNCHhA-5">
          <mxGeometry relative="1" as="geometry" />
        </mxCell>
        <mxCell id="3FSWND0N6_TuDMLNCHhA-3" value="&lt;span style=&quot;text-wrap-mode: nowrap;&quot;&gt;Print Pick Marker&lt;/span&gt;" style="rounded=1;whiteSpace=wrap;html=1;" vertex="1" parent="1">
          <mxGeometry x="242" y="334" width="120" height="60" as="geometry" />
        </mxCell>
        <mxCell id="3FSWND0N6_TuDMLNCHhA-7" style="edgeStyle=orthogonalEdgeStyle;rounded=0;orthogonalLoop=1;jettySize=auto;html=1;exitX=0.5;exitY=1;exitDx=0;exitDy=0;" edge="1" parent="1" source="3FSWND0N6_TuDMLNCHhA-5">
          <mxGeometry relative="1" as="geometry">
            <mxPoint x="302" y="540" as="targetPoint" />
          </mxGeometry>
        </mxCell>
        <mxCell id="3FSWND0N6_TuDMLNCHhA-5" value="&lt;span style=&quot;text-wrap-mode: nowrap;&quot;&gt;Prepare all totes&lt;/span&gt;" style="rounded=1;whiteSpace=wrap;html=1;" vertex="1" parent="1">
          <mxGeometry x="242" y="430" width="120" height="60" as="geometry" />
        </mxCell>
        <mxCell id="3FSWND0N6_TuDMLNCHhA-10" style="edgeStyle=orthogonalEdgeStyle;rounded=0;orthogonalLoop=1;jettySize=auto;html=1;exitX=1;exitY=0.5;exitDx=0;exitDy=0;entryX=0;entryY=0.5;entryDx=0;entryDy=0;" edge="1" parent="1" source="3FSWND0N6_TuDMLNCHhA-8" target="3FSWND0N6_TuDMLNCHhA-9">
          <mxGeometry relative="1" as="geometry" />
        </mxCell>
        <mxCell id="3FSWND0N6_TuDMLNCHhA-8" value="Select Picking Line" style="rounded=0;whiteSpace=wrap;html=1;" vertex="1" parent="1">
          <mxGeometry x="462" y="130" width="120" height="60" as="geometry" />
        </mxCell>
        <mxCell id="3FSWND0N6_TuDMLNCHhA-12" value="" style="edgeStyle=orthogonalEdgeStyle;rounded=0;orthogonalLoop=1;jettySize=auto;html=1;" edge="1" parent="1" source="3FSWND0N6_TuDMLNCHhA-9" target="3FSWND0N6_TuDMLNCHhA-11">
          <mxGeometry relative="1" as="geometry" />
        </mxCell>
        <mxCell id="3FSWND0N6_TuDMLNCHhA-9" value="Review Product Locations" style="rounded=0;whiteSpace=wrap;html=1;" vertex="1" parent="1">
          <mxGeometry x="672" y="130" width="120" height="60" as="geometry" />
        </mxCell>
        <mxCell id="3FSWND0N6_TuDMLNCHhA-15" value="" style="edgeStyle=orthogonalEdgeStyle;rounded=0;orthogonalLoop=1;jettySize=auto;html=1;" edge="1" parent="1" source="3FSWND0N6_TuDMLNCHhA-11" target="3FSWND0N6_TuDMLNCHhA-13">
          <mxGeometry relative="1" as="geometry" />
        </mxCell>
        <mxCell id="3FSWND0N6_TuDMLNCHhA-11" value="Select Picking Location" style="rounded=0;whiteSpace=wrap;html=1;" vertex="1" parent="1">
          <mxGeometry x="672" y="231.5" width="120" height="60" as="geometry" />
        </mxCell>
        <mxCell id="3FSWND0N6_TuDMLNCHhA-16" value="" style="edgeStyle=orthogonalEdgeStyle;rounded=0;orthogonalLoop=1;jettySize=auto;html=1;" edge="1" parent="1" source="3FSWND0N6_TuDMLNCHhA-13" target="3FSWND0N6_TuDMLNCHhA-14">
          <mxGeometry relative="1" as="geometry" />
        </mxCell>
        <mxCell id="3FSWND0N6_TuDMLNCHhA-13" value="Scan Product Barcode" style="rounded=0;whiteSpace=wrap;html=1;" vertex="1" parent="1">
          <mxGeometry x="672" y="327" width="120" height="60" as="geometry" />
        </mxCell>
        <mxCell id="3FSWND0N6_TuDMLNCHhA-14" value="Scan Pick Marker&lt;div&gt;Complete Pick&lt;/div&gt;" style="rounded=0;whiteSpace=wrap;html=1;" vertex="1" parent="1">
          <mxGeometry x="672" y="420" width="120" height="60" as="geometry" />
        </mxCell>
        <mxCell id="3FSWND0N6_TuDMLNCHhA-19" style="edgeStyle=orthogonalEdgeStyle;rounded=0;orthogonalLoop=1;jettySize=auto;html=1;exitX=0;exitY=0.5;exitDx=0;exitDy=0;exitPerimeter=0;entryX=0.5;entryY=1;entryDx=0;entryDy=0;" edge="1" parent="1" source="3FSWND0N6_TuDMLNCHhA-17" target="3FSWND0N6_TuDMLNCHhA-8">
          <mxGeometry relative="1" as="geometry" />
        </mxCell>
        <mxCell id="3FSWND0N6_TuDMLNCHhA-22" value="No" style="edgeLabel;html=1;align=center;verticalAlign=middle;resizable=0;points=[];" vertex="1" connectable="0" parent="3FSWND0N6_TuDMLNCHhA-19">
          <mxGeometry x="-0.6844" y="-1" relative="1" as="geometry">
            <mxPoint as="offset" />
          </mxGeometry>
        </mxCell>
        <mxCell id="3FSWND0N6_TuDMLNCHhA-33" style="edgeStyle=orthogonalEdgeStyle;rounded=0;orthogonalLoop=1;jettySize=auto;html=1;exitX=1;exitY=0.5;exitDx=0;exitDy=0;exitPerimeter=0;entryX=-0.005;entryY=0.558;entryDx=0;entryDy=0;entryPerimeter=0;" edge="1" parent="1" source="3FSWND0N6_TuDMLNCHhA-17" target="3FSWND0N6_TuDMLNCHhA-30">
          <mxGeometry relative="1" as="geometry">
            <mxPoint x="840" y="555" as="targetPoint" />
          </mxGeometry>
        </mxCell>
        <mxCell id="3FSWND0N6_TuDMLNCHhA-35" value="Yes" style="edgeLabel;html=1;align=center;verticalAlign=middle;resizable=0;points=[];" vertex="1" connectable="0" parent="3FSWND0N6_TuDMLNCHhA-33">
          <mxGeometry x="-0.2216" y="-1" relative="1" as="geometry">
            <mxPoint as="offset" />
          </mxGeometry>
        </mxCell>
        <mxCell id="3FSWND0N6_TuDMLNCHhA-17" value="Picking&lt;div&gt;Complete?&lt;/div&gt;" style="shape=mxgraph.flowchart.decision;strokeWidth=2;gradientColor=none;gradientDirection=north;fontStyle=0;html=1;" vertex="1" parent="1">
          <mxGeometry x="677.5" y="520" width="109" height="70" as="geometry" />
        </mxCell>
        <mxCell id="3FSWND0N6_TuDMLNCHhA-24" style="edgeStyle=orthogonalEdgeStyle;rounded=0;orthogonalLoop=1;jettySize=auto;html=1;exitX=0.5;exitY=1;exitDx=0;exitDy=0;entryX=0.5;entryY=0;entryDx=0;entryDy=0;entryPerimeter=0;" edge="1" parent="1" source="3FSWND0N6_TuDMLNCHhA-14" target="3FSWND0N6_TuDMLNCHhA-17">
          <mxGeometry relative="1" as="geometry" />
        </mxCell>
        <mxCell id="3FSWND0N6_TuDMLNCHhA-25" value="Manufacture" style="rounded=0;whiteSpace=wrap;html=1;" vertex="1" parent="1">
          <mxGeometry x="870" y="516" width="120" height="60" as="geometry" />
        </mxCell>
        <mxCell id="3FSWND0N6_TuDMLNCHhA-26" value="Cross Docking" style="rounded=0;whiteSpace=wrap;html=1;" vertex="1" parent="1">
          <mxGeometry x="1020" y="420" width="120" height="60" as="geometry" />
        </mxCell>
        <mxCell id="3FSWND0N6_TuDMLNCHhA-27" value="Assembly" style="rounded=0;whiteSpace=wrap;html=1;" vertex="1" parent="1">
          <mxGeometry x="870" y="420" width="120" height="60" as="geometry" />
        </mxCell>
        <mxCell id="3FSWND0N6_TuDMLNCHhA-28" value="Manufacture" style="rounded=0;whiteSpace=wrap;html=1;" vertex="1" parent="1">
          <mxGeometry x="1020" y="516" width="120" height="60" as="geometry" />
        </mxCell>
        <mxCell id="3FSWND0N6_TuDMLNCHhA-29" value="Despatch" style="rounded=0;whiteSpace=wrap;html=1;" vertex="1" parent="1">
          <mxGeometry x="950" y="610" width="120" height="60" as="geometry" />
        </mxCell>
        <mxCell id="3FSWND0N6_TuDMLNCHhA-30" value="" style="rounded=0;whiteSpace=wrap;html=1;fillColor=none;dashed=1;" vertex="1" parent="1">
          <mxGeometry x="850" y="384" width="310" height="306" as="geometry" />
        </mxCell>
        <mxCell id="3FSWND0N6_TuDMLNCHhA-34" style="edgeStyle=orthogonalEdgeStyle;rounded=0;orthogonalLoop=1;jettySize=auto;html=1;exitX=0.5;exitY=1;exitDx=0;exitDy=0;entryX=0.5;entryY=0;entryDx=0;entryDy=0;entryPerimeter=0;" edge="1" parent="1" source="3FSWND0N6_TuDMLNCHhA-30" target="FllbzKFlJK6ehd7ZULbo-121">
          <mxGeometry relative="1" as="geometry" />
        </mxCell>
      </root>
    </mxGraphModel>
  </diagram>
</mxfile>
